<?xml version="1.0" encoding="utf-8"?>
<!-- Generated by IcoMoon.io -->
<!DOCTYPE svg PUBLIC "-//W3C//DTD SVG 1.1//EN" "http://www.w3.org/Graphics/SVG/1.1/DTD/svg11.dtd">
<svg version="1.1" xmlns="http://www.w3.org/2000/svg" xmlns:xlink="http://www.w3.org/1999/xlink" width="512" height="512" viewBox="0 0 512 512">
<g>
</g>
	<path d="M245.883 10.097h20.234c50.35 0 91.812 44.022 91.812 97.936v56.555c0 6.82-0.491 13.639-1.976 19.917v108.4c23.388 6.697 34.55 28.283 34.55 28.283v180.695h-23.255v-158.72c-4.925 5.765-12.339 11.018-21.709 15.719v124.642h-22.764v-119.399c-23.204 8.899-33.464 14.142-67.502 14.142-33.577 0-43.315-5.243-66.038-13.599v118.856h-23.245v-124.078c-8.888-4.219-16.302-9.442-21.227-15.196v157.655h-23.255v-180.706c0 0 6.902-19.62 34.058-28.815v-109.947c-0.994-5.775-1.485-11.52-1.485-17.838v-56.555c0-53.924 41.452-97.945 91.802-97.945v0zM256.236 35.779c-39.957 0-72.54 44.503-72.54 100.024 0 54.978 32.584 100.024 72.54 100.024 39.486 0 72.059-45.036 72.059-100.024 0.010-55.522-32.563-100.025-72.059-100.025v0zM333.189 287.683v-70.677c-16.302 27.197-34.488 45.537-67.082 45.537h-20.234c-32.583 0-50.77-18.34-67.072-46.060v70.676c22.713-8.397 42.885-13.599 76.462-13.599 34.048 0 54.722 5.202 77.927 14.121z" fill="#000000" />
</svg>
